# Blender v3.4.1 OBJ File: ''
# www.blender.org
mtllib Grass.mtl
o Plan
v -0.282352 1.188652 0.000000
v -0.126837 0.017396 0.000000
v 0.258725 1.188652 -0.000000
v 0.103210 0.017396 0.000000
v 0.184670 1.326302 0.000000
v -0.208297 1.326302 0.000000
v -0.050154 0.017396 0.000000
v 0.026528 0.017396 0.000000
v 0.053681 1.371974 0.000000
v -0.077308 1.371974 0.000000
v -0.024594 0.017396 0.000000
v 0.000967 0.017396 0.000000
vt 0.096800 0.993266
vt 0.078834 0.877512
vt 0.109869 0.877512
vt 0.121664 0.982753
vt 0.004969 0.982753
vt 0.016764 0.877512
vt 0.047799 0.877512
vt 0.029833 0.993266
vt 0.074478 0.993266
vt 0.068489 0.877512
vt 0.058144 0.877512
vt 0.052155 0.993266
vn 0.0000 0.0000 1.0000
usemtl Material
s off
f 5/1/1 8/2/1 4/3/1 3/4/1
f 1/5/1 2/6/1 7/7/1 6/8/1
f 9/9/1 12/10/1 8/2/1 5/1/1
f 6/8/1 7/7/1 11/11/1 10/12/1
f 10/12/1 11/11/1 12/10/1 9/9/1
