# Blender 3.4.1
# www.blender.org
mtllib sword_over_model.mtl
o Cube
v -2.700000 1.000000 -0.079517
v -2.700000 0.879517 -0.200000
v -2.700000 0.964711 -0.164711
v -2.700000 -0.879517 -0.200000
v -2.700000 -1.000000 -0.079517
v -2.700000 -0.964711 -0.164711
v -2.700000 0.879517 0.200000
v -2.700000 1.000000 0.079517
v -2.700000 0.964711 0.164711
v -2.700000 -1.000000 0.079517
v -2.700000 -0.879517 0.200000
v -2.700000 -0.964711 0.164711
v 3.179518 0.199574 -0.200000
v 3.300000 0.187708 -0.079517
v 3.264712 0.191183 -0.164711
v 2.100425 -0.879517 -0.200000
v 2.112292 -1.000000 -0.079517
v 2.108816 -0.964712 -0.164711
v 3.096099 -0.219798 -0.200000
v 3.209591 -0.266808 -0.079517
v 3.176350 -0.253039 -0.164711
v 2.865265 -0.565266 -0.200000
v 2.952128 -0.652128 -0.079517
v 2.926687 -0.626687 -0.164711
v 2.519798 -0.796099 -0.200000
v 2.566808 -0.909591 -0.079517
v 2.553039 -0.876350 -0.164711
v 2.100425 -0.879517 0.200000
v 2.112292 -1.000000 0.079517
v 2.108816 -0.964712 0.164711
v 3.179518 0.199574 0.200000
v 3.300000 0.187708 0.079517
v 3.264712 0.191183 0.164711
v 2.519798 -0.796099 0.200000
v 2.566808 -0.909591 0.079517
v 2.553039 -0.876350 0.164711
v 2.865265 -0.565266 0.200000
v 2.952128 -0.652128 0.079517
v 2.926687 -0.626687 0.164711
v 3.096099 -0.219798 0.200000
v 3.209591 -0.266808 0.079517
v 3.176350 -0.253039 0.164711
v 3.128000 0.879517 -0.200000
v 3.151965 1.000000 -0.079517
v 3.144945 0.964711 -0.164711
v 3.179518 0.827999 -0.200000
v 3.300000 0.851965 -0.079517
v 3.264712 0.844945 -0.164711
v 3.164428 0.864428 -0.200000
v 3.256642 0.956641 -0.079517
v 3.229633 0.929633 -0.164711
v 3.179518 0.827999 0.200000
v 3.300000 0.851965 0.079517
v 3.264712 0.844945 0.164711
v 3.128000 0.879517 0.200000
v 3.151965 1.000000 0.079517
v 3.144945 0.964711 0.164711
v 3.164428 0.864428 0.200000
v 3.256642 0.956641 0.079517
v 3.229633 0.929633 0.164711
vn -0.6657 -0.7319 -0.1456
vn 0.0962 -0.9764 -0.1936
vn 0.0962 -0.9764 0.1936
vn -0.6657 -0.7319 0.1456
vn 0.1914 0.9622 -0.1938
vn -0.6657 0.7319 -0.1456
vn -0.6657 0.7319 0.1456
vn 0.1914 0.9622 0.1938
vn 0.0202 -0.2049 0.9786
vn 0.0821 -0.1983 0.9767
vn 0.1518 -0.1518 0.9767
vn 0.1983 -0.0821 0.9767
vn 0.2049 -0.0202 0.9786
vn 0.2105 0.0419 0.9767
vn 0.1590 0.1590 0.9744
vn 0.0419 0.2105 0.9767
vn -0.6657 0.1456 0.7319
vn -0.6657 -0.1456 0.7319
vn -0.6657 -0.1456 -0.7319
vn -0.6657 0.1456 -0.7319
vn 0.0419 0.2105 -0.9767
vn 0.1590 0.1590 -0.9744
vn 0.2105 0.0419 -0.9767
vn 0.2049 -0.0202 -0.9786
vn 0.1983 -0.0821 -0.9767
vn 0.1518 -0.1518 -0.9767
vn 0.0821 -0.1983 -0.9767
vn 0.0202 -0.2049 -0.9786
vn 0.6937 -0.6937 0.1938
vn 0.6937 -0.6937 -0.1938
vn 0.9064 -0.3754 -0.1938
vn 0.9064 -0.3754 0.1938
vn 0.6929 0.6929 0.1994
vn 0.6929 0.6929 -0.1994
vn 0.3754 -0.9064 0.1938
vn 0.3754 -0.9064 -0.1938
vn 0.9764 -0.0962 -0.1936
vn 0.9622 0.1914 -0.1938
vn 0.9622 0.1914 0.1938
vn 0.9764 -0.0962 0.1936
vn 0.0703 -0.7140 0.6966
vn 0.2774 -0.6697 0.6889
vn 0.2774 -0.6697 -0.6889
vn 0.0703 -0.7140 -0.6966
vn 0.5126 -0.5126 0.6889
vn 0.5126 -0.5126 -0.6889
vn 0.6697 -0.2774 0.6889
vn 0.6697 -0.2774 -0.6889
vn 0.7140 -0.0703 0.6966
vn 0.7140 -0.0703 -0.6966
vn -0.6303 -0.5490 -0.5490
vn -0.6303 -0.5490 0.5490
vn 0.1414 0.7110 -0.6889
vn 0.5169 0.5169 -0.6824
vn 0.5169 0.5169 0.6824
vn 0.1414 0.7110 0.6889
vn 0.7110 0.1414 -0.6889
vn 0.7110 0.1414 0.6889
vn -0.6303 0.5490 -0.5490
vn -0.6303 0.5490 0.5490
vt 0.798396 0.205287
vt 0.464378 -0.244940
vt 0.284797 -1.734820
vt 0.315134 -0.334692
vt 0.314646 -1.734820
vt 0.798396 -0.243475
vt 0.358846 -0.271228
vt -0.150992 -1.734820
vt 0.315134 -1.645068
vt 1.233823 0.797644
vt 0.464378 -1.734820
vt 1.233823 1.246406
vt -0.180841 -1.734820
vt 0.358846 -1.708533
vt 0.284798 2.734820
vt 0.810621 -0.334692
vt 0.798396 0.797643
vt 0.661377 -0.244940
vt 0.314646 2.734820
vt 0.798396 1.246405
vt 0.766909 -0.271228
vt 1.233823 0.205287
vt 0.661377 -1.734820
vt -0.150992 2.734820
vt 0.810621 -1.645068
vt -0.180841 2.734820
vt 1.233823 -0.243474
vt 0.766909 -1.708533
vt 0.116346 -0.274857
vt 0.113406 0.203822
vt 0.112562 -0.245108
vt 0.112562 -0.244940
vt 0.114267 -0.244940
vt -0.150992 -0.542810
vt 0.836418 0.797644
vt -0.180673 -0.539017
vt 0.836136 1.246406
vt 0.836705 1.246406
vt -0.180841 -0.540727
vt 0.012449 -0.295571
vt 0.000803 0.203822
vt -0.000643 -0.268358
vt -0.001949 -0.244940
vt 0.002508 -0.267049
vt 0.002508 -0.244940
vt -0.073138 -0.352890
vt -0.180841 0.203822
vt -0.095624 -0.332770
vt -0.181758 -0.244940
vt -0.093212 -0.330353
vt -0.178090 -0.244940
vt -0.130326 -0.438674
vt 0.798883 0.797644
vt -0.241389 0.203822
vt -0.158782 -0.428710
vt 0.799452 1.246406
vt -0.157477 -0.425552
vt -0.240472 -0.244940
vt -0.150992 1.542811
vt 0.836418 0.205287
vt -0.180673 1.539018
vt 0.836136 -0.243474
vt -0.180841 1.540727
vt 0.836705 -0.243474
vt 0.116346 1.274857
vt 0.113406 0.796179
vt 0.112562 1.245109
vt 0.112562 1.244941
vt 0.114267 1.244941
vt -0.130326 1.438674
vt 0.798883 0.205287
vt -0.241389 0.796179
vt -0.158782 1.428712
vt 0.799452 -0.243475
vt -0.157477 1.425553
vt -0.240472 1.244941
vt -0.073138 1.352891
vt -0.180841 0.796179
vt -0.095624 1.332771
vt -0.181758 1.244941
vt -0.093212 1.330354
vt -0.178090 1.244941
vt 0.012449 1.295572
vt 0.000803 0.796179
vt -0.000643 1.268358
vt -0.001949 1.244941
vt 0.002508 1.267050
vt 0.002508 1.244941
vt 0.284798 -0.287650
vt 0.811108 -0.693701
vt 0.315134 0.205287
vt 0.313981 -0.280089
vt 0.811866 -0.244940
vt 0.314646 -0.283442
vt 0.315714 -0.243475
vt 0.272034 -0.274858
vt 0.277972 0.203822
vt 0.279578 -0.245607
vt 0.280244 -0.244940
vt 0.276233 -0.244940
vt 0.281059 -0.278604
vt 0.823333 -0.693701
vt 0.314646 0.203822
vt 0.305290 -0.259060
vt 0.821756 -0.244940
vt 0.300559 -0.254317
vt 0.309915 -0.244940
vt 0.272034 1.274858
vt 0.277972 0.796178
vt 0.279578 1.245607
vt 0.280244 1.244940
vt 0.276233 1.244940
vt 0.284798 1.287650
vt 0.811108 -1.286058
vt 0.315134 0.797643
vt 0.313981 1.280089
vt 0.811866 -1.734820
vt 0.314646 1.283442
vt 0.315713 1.246405
vt 0.281059 1.278605
vt 0.823333 -1.286058
vt 0.314646 0.796179
vt 0.305291 1.259060
vt 0.821756 -1.734820
vt 0.300559 1.254318
vt 0.309915 1.244940
s 1
usemtl Material
f 5/10/1 17/35/2 29/60/3 10/22/4
f 44/91/5 1/1/6 8/17/7 56/115/8
f 28/59/9 34/70/10 37/77/11 40/83/12 31/65/13 52/108/14 58/120/15 55/113/16 7/15/17 11/24/18
f 4/8/19 2/3/20 43/89/21 49/101/22 46/96/23 13/29/24 19/40/25 22/46/26 25/52/27 16/34/28
f 38/78/29 23/47/30 20/41/31 41/84/32
f 44/90/5 56/114/8 59/121/33 50/102/34
f 35/72/35 26/54/36 23/47/30 38/78/29
f 14/30/37 47/97/38 53/109/39 32/66/40
f 41/84/32 20/41/31 14/30/37 32/66/40
f 50/103/34 59/122/33 53/109/39 47/97/38
f 29/60/3 17/35/2 26/53/36 35/71/35
f 34/70/10 28/59/9 30/61/41 36/73/42
f 36/74/42 30/62/41 29/60/3 35/71/35
f 16/34/28 25/52/27 27/55/43 18/36/44
f 18/37/44 27/56/43 26/53/36 17/35/2
f 37/77/11 34/70/10 36/75/42 39/79/45
f 39/80/45 36/76/42 35/72/35 38/78/29
f 25/52/27 22/46/26 24/48/46 27/57/43
f 27/58/43 24/49/46 23/47/30 26/54/36
f 40/83/12 37/77/11 39/81/45 42/85/47
f 42/86/47 39/82/45 38/78/29 41/84/32
f 22/46/26 19/40/25 21/42/48 24/50/46
f 24/51/46 21/43/48 20/41/31 23/47/30
f 31/65/13 40/83/12 42/87/47 33/67/49
f 33/68/49 42/88/47 41/84/32 32/66/40
f 19/40/25 13/29/24 15/31/50 21/44/48
f 21/45/48 15/32/50 14/30/37 20/41/31
f 17/35/2 5/10/1 6/12/51 18/38/44
f 18/39/44 6/13/51 4/8/19 16/34/28
f 28/59/9 11/24/18 12/26/52 30/63/41
f 30/64/41 12/27/52 10/22/4 29/60/3
f 49/101/22 43/89/21 45/92/53 51/104/54
f 51/105/54 45/93/53 44/90/5 50/102/34
f 55/113/16 58/120/15 60/123/55 57/116/56
f 57/117/56 60/124/55 59/121/33 56/114/8
f 46/96/23 49/101/22 51/106/54 48/98/57
f 48/99/57 51/107/54 50/103/34 47/97/38
f 58/120/15 52/108/14 54/110/58 60/125/55
f 60/126/55 54/111/58 53/109/39 59/122/33
f 13/29/24 46/96/23 48/100/57 15/33/50
f 15/33/50 48/100/57 47/97/38 14/30/37
f 52/108/14 31/65/13 33/69/49 54/112/58
f 54/112/58 33/69/49 32/66/40 53/109/39
f 43/89/21 2/3/20 3/5/59 45/94/53
f 45/95/53 3/6/59 1/1/6 44/91/5
f 7/15/17 55/113/16 57/118/56 9/19/60
f 9/20/60 57/119/56 56/115/8 8/17/7
f 10/23/4 12/28/52 11/25/18 7/16/17 9/21/60 8/18/7 1/2/6 3/7/59 2/4/20 4/9/19 6/14/51 5/11/1
