# Blender v3.4.1 OBJ File: ''
# www.blender.org
mtllib Dall1.mtl
o Cube.002
v -0.931614 -1.000000 0.931614
v -0.931614 -0.931614 1.000000
v -1.000000 -0.931614 0.931614
v -0.931614 -0.979970 0.979970
v -0.971097 -0.971097 0.971097
v -0.979970 -0.931614 0.979970
v -0.979970 -0.979970 0.931614
v -0.931614 0.931614 1.000000
v -0.931614 1.000000 0.931614
v -1.000000 0.931614 0.931614
v -0.931614 0.979970 0.979970
v -0.971097 0.971097 0.971097
v -0.979970 0.979970 0.931614
v -0.979970 0.931614 0.979970
v -0.931614 -1.000000 -0.931614
v -1.000000 -0.931614 -0.931614
v -0.931614 -0.931614 -1.000000
v -0.979970 -0.979970 -0.931614
v -0.971097 -0.971097 -0.971097
v -0.979970 -0.931614 -0.979970
v -0.931614 -0.979970 -0.979970
v -0.931614 1.000000 -0.931614
v -0.931614 0.931614 -1.000000
v -1.000000 0.931614 -0.931614
v -0.931614 0.979970 -0.979970
v -0.971097 0.971097 -0.971097
v -0.979970 0.931614 -0.979970
v -0.979970 0.979970 -0.931614
v 0.931614 -1.000000 0.931614
v 1.000000 -0.931614 0.931614
v 0.931614 -0.931614 1.000000
v 0.979970 -0.979970 0.931614
v 0.971097 -0.971097 0.971097
v 0.979970 -0.931614 0.979970
v 0.931614 -0.979970 0.979970
v 0.931614 1.000000 0.931614
v 0.931614 0.931614 1.000000
v 1.000000 0.931614 0.931614
v 0.931614 0.979970 0.979970
v 0.971097 0.971097 0.971097
v 0.979970 0.931614 0.979970
v 0.979970 0.979970 0.931614
v 0.931614 -1.000000 -0.931614
v 0.931614 -0.931614 -1.000000
v 1.000000 -0.931614 -0.931614
v 0.931614 -0.979970 -0.979970
v 0.971097 -0.971097 -0.971097
v 0.979970 -0.931614 -0.979970
v 0.979970 -0.979970 -0.931614
v 0.931614 1.000000 -0.931614
v 1.000000 0.931614 -0.931614
v 0.931614 0.931614 -1.000000
v 0.979970 0.979970 -0.931614
v 0.971097 0.971097 -0.971097
v 0.979970 0.931614 -0.979970
v 0.931614 0.979970 -0.979970
vt 0.732596 0.780685
vt 0.732596 0.995489
vt 0.517791 0.995489
vt 0.517791 0.780685
vt 0.731311 0.776035
vt 0.731311 0.990839
vt 0.516507 0.990839
vt 0.516507 0.776035
vt 0.598979 0.746774
vt 0.381126 0.746774
vt 0.381126 0.528921
vt 0.598979 0.528921
vt 0.733636 0.781680
vt 0.733636 0.996484
vt 0.518832 0.996484
vt 0.518832 0.781680
vt 0.517791 0.780685
vt 0.517791 0.995489
vt 0.732596 0.995489
vt 0.732596 0.780685
vt 0.144499 0.732389
vt 0.144499 0.737964
vt 0.139947 0.736941
vt 0.138924 0.732389
vt 0.144499 0.740273
vt 0.138924 0.737964
vt 0.136615 0.732389
vt 0.021738 0.761444
vt 0.021738 0.762353
vt 0.019946 0.762756
vt 0.019544 0.762353
vt 0.021738 0.764548
vt 0.019544 0.764548
vt 0.018635 0.764548
vt 0.144499 0.517585
vt 0.138924 0.517585
vt 0.139947 0.513033
vt 0.144499 0.512010
vt 0.136615 0.517585
vt 0.138924 0.512010
vt 0.144499 0.509701
vt 0.021738 0.849116
vt 0.021738 0.851311
vt 0.019946 0.850908
vt 0.019544 0.849116
vt 0.021738 0.852220
vt 0.019544 0.851311
vt 0.018635 0.849116
vt 0.359303 0.732389
vt 0.364878 0.732389
vt 0.363855 0.736941
vt 0.359303 0.737964
vt 0.367187 0.732389
vt 0.364878 0.737964
vt 0.359303 0.740273
vt 0.106306 0.764548
vt 0.106306 0.762353
vt 0.108098 0.762756
vt 0.108501 0.764548
vt 0.106306 0.761444
vt 0.108501 0.762353
vt 0.109410 0.764548
vt 0.359303 0.517585
vt 0.359303 0.512010
vt 0.363855 0.513033
vt 0.364878 0.517585
vt 0.359303 0.509701
vt 0.364878 0.512010
vt 0.367187 0.517585
vt 0.106306 0.849116
vt 0.108501 0.849116
vt 0.108098 0.850908
vt 0.106306 0.851311
vt 0.109410 0.849116
vt 0.108501 0.851311
vt 0.106306 0.852220
vt 0.741520 0.781680
vt 0.741520 0.996484
vt 0.739211 0.996484
vt 0.739211 0.781680
vt 0.510948 0.996484
vt 0.510948 0.781680
vt 0.513257 0.781680
vt 0.513257 0.996484
vt 0.740479 0.997040
vt 0.740479 0.782235
vt 0.738170 0.782235
vt 0.738170 0.997040
vt 0.732596 0.782235
vt 0.732596 0.997040
vt 0.732596 0.997040
vt 0.732596 0.782235
vt 0.738170 0.782235
vt 0.738170 0.997040
vt 0.740479 0.782235
vt 0.740479 0.997040
vn 0.1794 -0.1794 0.9673
vn 0.1794 0.1794 0.9673
vn -0.1794 0.1794 0.9673
vn -0.1794 -0.1794 0.9673
vn 0.9673 -0.1794 -0.1794
vn 0.9673 0.1794 -0.1794
vn 0.9673 0.1794 0.1794
vn 0.9673 -0.1794 0.1794
vn 0.1794 0.9673 -0.1794
vn -0.1794 0.9673 -0.1794
vn -0.1794 0.9673 0.1794
vn 0.1794 0.9673 0.1794
vn -0.9673 -0.1794 0.1794
vn -0.9673 0.1794 0.1794
vn -0.9673 0.1794 -0.1794
vn -0.9673 -0.1794 -0.1794
vn -0.1794 -0.1794 -0.9673
vn -0.1794 0.1794 -0.9673
vn 0.1794 0.1794 -0.9673
vn 0.1794 -0.1794 -0.9673
vn -0.1794 -0.9673 0.1794
vn -0.1585 -0.9194 0.3600
vn -0.3251 -0.8881 0.3251
vn -0.3600 -0.9194 0.1585
vn -0.3600 -0.1585 0.9194
vn -0.3251 -0.3251 0.8881
vn -0.1585 -0.3600 0.9194
vn -0.9194 -0.3600 0.1585
vn -0.8881 -0.3251 0.3251
vn -0.9194 -0.1585 0.3600
vn -0.1585 0.3600 0.9194
vn -0.3251 0.3251 0.8881
vn -0.3600 0.1585 0.9194
vn -0.3600 0.9194 0.1585
vn -0.3251 0.8881 0.3251
vn -0.1585 0.9194 0.3600
vn -0.9194 0.1585 0.3600
vn -0.8881 0.3251 0.3251
vn -0.9194 0.3600 0.1585
vn -0.1794 -0.9673 -0.1794
vn -0.3600 -0.9194 -0.1585
vn -0.3251 -0.8881 -0.3251
vn -0.1585 -0.9194 -0.3600
vn -0.9194 -0.1585 -0.3600
vn -0.8881 -0.3251 -0.3251
vn -0.9194 -0.3600 -0.1585
vn -0.1585 -0.3600 -0.9194
vn -0.3251 -0.3251 -0.8881
vn -0.3600 -0.1585 -0.9194
vn -0.1585 0.9194 -0.3600
vn -0.3251 0.8881 -0.3251
vn -0.3600 0.9194 -0.1585
vn -0.3600 0.1585 -0.9194
vn -0.3251 0.3251 -0.8881
vn -0.1585 0.3600 -0.9194
vn -0.9194 0.3600 -0.1585
vn -0.8881 0.3251 -0.3251
vn -0.9194 0.1585 -0.3600
vn 0.1794 -0.9673 0.1794
vn 0.3600 -0.9194 0.1585
vn 0.3251 -0.8881 0.3251
vn 0.1585 -0.9194 0.3600
vn 0.9194 -0.1585 0.3600
vn 0.8881 -0.3251 0.3251
vn 0.9194 -0.3600 0.1585
vn 0.1585 -0.3600 0.9194
vn 0.3251 -0.3251 0.8881
vn 0.3600 -0.1585 0.9194
vn 0.1585 0.9194 0.3600
vn 0.3251 0.8881 0.3251
vn 0.3600 0.9194 0.1585
vn 0.3600 0.1585 0.9194
vn 0.3251 0.3251 0.8881
vn 0.1585 0.3600 0.9194
vn 0.9194 0.3600 0.1585
vn 0.8881 0.3251 0.3251
vn 0.9194 0.1585 0.3600
vn 0.1794 -0.9673 -0.1794
vn 0.1585 -0.9194 -0.3600
vn 0.3251 -0.8881 -0.3251
vn 0.3600 -0.9194 -0.1585
vn 0.3600 -0.1585 -0.9194
vn 0.3251 -0.3251 -0.8881
vn 0.1585 -0.3600 -0.9194
vn 0.9194 -0.3600 -0.1585
vn 0.8881 -0.3251 -0.3251
vn 0.9194 -0.1585 -0.3600
vn 0.3600 0.9194 -0.1585
vn 0.3251 0.8881 -0.3251
vn 0.1585 0.9194 -0.3600
vn 0.9194 0.1585 -0.3600
vn 0.8881 0.3251 -0.3251
vn 0.9194 0.3600 -0.1585
vn 0.1585 0.3600 -0.9194
vn 0.3251 0.3251 -0.8881
vn 0.3600 0.1585 -0.9194
usemtl Material.001
s 1
f 31/1/1 37/2/2 8/3/3 2/4/4
f 45/5/5 51/6/6 38/7/7 30/8/8
f 50/9/9 22/10/10 9/11/11 36/12/12
f 3/13/13 10/14/14 24/15/15 16/16/16
f 17/17/17 23/18/18 52/19/19 44/20/20
f 1/21/21 4/22/22 5/23/23 7/24/24
f 2/25/4 6/26/25 5/23/26 4/22/27
f 3/27/13 7/24/28 5/23/29 6/26/30
f 8/28/3 11/29/31 12/30/32 14/31/33
f 9/32/11 13/33/34 12/30/35 11/29/36
f 10/34/14 14/31/37 12/30/38 13/33/39
f 15/35/40 18/36/41 19/37/42 21/38/43
f 16/39/16 20/40/44 19/37/45 18/36/46
f 17/41/17 21/38/47 19/37/48 20/40/49
f 22/42/10 25/43/50 26/44/51 28/45/52
f 23/46/18 27/47/53 26/44/54 25/43/55
f 24/48/15 28/45/56 26/44/57 27/47/58
f 29/49/59 32/50/60 33/51/61 35/52/62
f 30/53/8 34/54/63 33/51/64 32/50/65
f 31/55/1 35/52/66 33/51/67 34/54/68
f 36/56/12 39/57/69 40/58/70 42/59/71
f 37/60/2 41/61/72 40/58/73 39/57/74
f 38/62/7 42/59/75 40/58/76 41/61/77
f 43/63/78 46/64/79 47/65/80 49/66/81
f 44/67/20 48/68/82 47/65/83 46/64/84
f 45/69/5 49/66/85 47/65/86 48/68/87
f 50/70/9 53/71/88 54/72/89 56/73/90
f 51/74/6 55/75/91 54/72/92 53/71/93
f 52/76/19 56/73/94 54/72/95 55/75/96
f 15/35/40 1/21/21 7/24/24 18/36/41
f 18/36/46 7/24/28 3/27/13 16/39/16
f 2/77/4 8/78/3 14/79/33 6/80/25
f 6/80/30 14/79/37 10/14/14 3/13/13
f 9/32/11 22/42/10 28/45/52 13/33/34
f 13/33/39 28/45/56 24/48/15 10/34/14
f 23/81/18 17/82/17 20/83/49 27/84/53
f 27/84/58 20/83/44 16/16/16 24/15/15
f 43/63/78 15/35/40 21/38/43 46/64/79
f 46/64/84 21/38/47 17/41/17 44/67/20
f 22/42/10 50/70/9 56/73/90 25/43/50
f 25/43/55 56/73/94 52/76/19 23/46/18
f 51/85/6 45/86/5 48/87/87 55/88/91
f 55/88/96 48/87/82 44/89/20 52/90/19
f 29/49/59 43/63/78 49/66/81 32/50/60
f 32/50/65 49/66/85 45/69/5 30/53/8
f 50/70/9 36/56/12 42/59/71 53/71/88
f 53/71/93 42/59/75 38/62/7 51/74/6
f 37/91/2 31/92/1 34/93/68 41/94/72
f 41/94/77 34/93/63 30/95/8 38/96/7
f 1/21/21 29/49/59 35/52/62 4/22/22
f 4/22/27 35/52/66 31/55/1 2/25/4
f 36/56/12 9/32/11 11/29/36 39/57/69
f 39/57/74 11/29/31 8/28/3 37/60/2
f 15/35/40 43/63/78 29/49/59 1/21/21
