# Blender 3.4.1
# www.blender.org
mtllib pillarGround.mtl
o Cylindre
v 0.000000 -0.163564 -1.294310
v 0.495311 -0.163564 -1.195786
v 0.915215 -0.163564 -0.915215
v 1.195786 -0.163564 -0.495311
v 1.294310 -0.163564 0.000000
v 1.195786 -0.163564 0.495311
v 0.915215 -0.163564 0.915215
v 0.495311 -0.163564 1.195786
v 0.000000 -0.163564 1.294310
v -0.495311 -0.163564 1.195786
v -0.915215 -0.163564 0.915215
v -1.195786 -0.163564 0.495311
v -1.294310 -0.163564 0.000000
v -1.195786 -0.163564 -0.495311
v -0.915215 -0.163564 -0.915215
v -0.495311 -0.163564 -1.195786
v 0.794476 1.085469 -1.918036
v 1.468001 1.085469 -1.468001
v 1.918036 1.085469 -0.794477
v 2.076067 1.085470 -0.000000
v 1.918036 1.085470 0.794476
v 1.468001 1.085470 1.468001
v 0.794476 1.085470 1.918035
v -0.000000 1.085470 2.076067
v -0.794476 1.085470 1.918035
v -1.468001 1.085470 1.468001
v -1.918036 1.085470 0.794476
v -2.076067 1.085470 -0.000000
v -1.918036 1.085469 -0.794477
v -1.468001 1.085469 -1.468001
v -0.794476 1.085469 -1.918036
v -0.000000 1.085469 -2.076067
vn -0.0000 -0.5305 -0.8477
vn 0.3244 -0.5305 -0.7831
vn 0.5994 -0.5305 -0.5994
vn 0.7831 -0.5305 -0.3244
vn 0.8477 -0.5305 -0.0000
vn 0.7831 -0.5305 0.3244
vn 0.5994 -0.5305 0.5994
vn 0.3244 -0.5305 0.7831
vn -0.0000 -0.5305 0.8477
vn -0.3244 -0.5305 0.7831
vn -0.5994 -0.5305 0.5994
vn -0.7831 -0.5305 0.3244
vn -0.8477 -0.5305 -0.0000
vn -0.7831 -0.5305 -0.3244
vn -0.5994 -0.5305 -0.5994
vn -0.3244 -0.5305 -0.7831
vt 1.000000 0.500000
vt 0.000000 0.500000
vt 0.937500 0.500000
vt 0.875000 0.500000
vt 0.812500 0.500000
vt 0.750000 0.500000
vt 0.687500 0.500000
vt 0.625000 0.500000
vt 0.562500 0.500000
vt 0.500000 0.500000
vt 0.437500 0.500000
vt 0.375000 0.500000
vt 0.312500 0.500000
vt 0.250000 0.500000
vt 0.187500 0.500000
vt 0.125000 0.500000
vt 0.062500 0.500000
vt 0.937500 0.563889
vt 0.875000 0.563889
vt 0.812500 0.563889
vt 0.750000 0.563889
vt 0.687500 0.563889
vt 0.625000 0.563889
vt 0.562500 0.563889
vt 0.500000 0.563889
vt 0.437500 0.563889
vt 0.375000 0.563889
vt 0.312500 0.563889
vt 0.250000 0.563889
vt 0.187500 0.563889
vt 0.125000 0.563889
vt 0.062500 0.563889
vt 1.000000 0.563889
vt 0.000000 0.563889
s 1
f 1/1/1 32/33/1 17/18/2 2/3/2
f 2/3/2 17/18/2 18/19/3 3/4/3
f 3/4/3 18/19/3 19/20/4 4/5/4
f 4/5/4 19/20/4 20/21/5 5/6/5
f 5/6/5 20/21/5 21/22/6 6/7/6
f 6/7/6 21/22/6 22/23/7 7/8/7
f 7/8/7 22/23/7 23/24/8 8/9/8
f 8/9/8 23/24/8 24/25/9 9/10/9
f 9/10/9 24/25/9 25/26/10 10/11/10
f 10/11/10 25/26/10 26/27/11 11/12/11
f 11/12/11 26/27/11 27/28/12 12/13/12
f 12/13/12 27/28/12 28/29/13 13/14/13
f 13/14/13 28/29/13 29/30/14 14/15/14
f 14/15/14 29/30/14 30/31/15 15/16/15
f 15/16/15 30/31/15 31/32/16 16/17/16
f 16/17/16 31/32/16 32/34/1 1/2/1
