# Blender 3.4.1
# www.blender.org
mtllib Slash2_model.mtl
o Cylindre
v 0.125622 -0.003302 -0.910603
v 0.117785 -0.355780 -0.843708
v 0.089800 -0.660940 -0.651809
v 0.054337 -0.875739 -0.370047
v 0.019457 -0.961636 -0.060361
v 0.019457 0.955031 -0.060361
v 0.054337 0.868951 -0.370047
v 0.089800 0.654335 -0.651809
v 0.117785 0.349176 -0.843708
v 0.000000 -0.001651 -0.972984
v 0.000000 -0.374625 -0.899069
v 0.000000 -0.690816 -0.688872
v -0.000000 -0.902089 -0.373977
v 0.000000 -1.001651 -0.002125
v 0.000000 0.998349 -0.002125
v 0.000000 0.898786 -0.373977
v 0.000000 0.687514 -0.688872
v -0.000000 0.371322 -0.899069
v 0.025739 0.000000 -0.610189
v 0.025241 0.749175 -0.303939
v 0.025241 -0.750826 -0.303939
v 0.025739 -0.500000 -0.468546
v 0.025739 -0.250000 -0.576476
v 0.025739 0.500000 -0.468546
v 0.025739 0.250000 -0.576476
v -0.125622 -0.003302 -0.910603
v -0.117785 -0.355780 -0.843708
v -0.089800 -0.660940 -0.651809
v -0.054337 -0.875739 -0.370047
v -0.019457 -0.961636 -0.060361
v -0.019457 0.955031 -0.060361
v -0.054337 0.868951 -0.370047
v -0.089800 0.654335 -0.651809
v -0.117785 0.349176 -0.843708
v -0.025739 0.000000 -0.610189
v -0.025241 0.749175 -0.303939
v -0.025241 -0.750826 -0.303939
v -0.025739 -0.500000 -0.468546
v -0.025739 -0.250000 -0.576476
v -0.025739 0.500000 -0.468546
v -0.025739 0.250000 -0.576476
v 0.123986 -0.182576 -0.893786
v 0.083952 -0.002477 -0.964571
v 0.105810 -0.517001 -0.761652
v 0.072073 -0.782370 -0.519298
v 0.037341 -0.935144 -0.212651
v 0.037341 0.928150 -0.212651
v 0.072073 0.775742 -0.519298
v 0.105810 0.510397 -0.761652
v 0.048327 0.813065 -0.352363
v 0.123986 0.175971 -0.893786
v 0.078564 -0.372888 -0.891636
v 0.059324 -0.687701 -0.684129
v 0.034711 -0.899414 -0.373862
v 0.010964 -0.997268 -0.010201
v 0.010964 0.992315 -0.010201
v 0.034711 0.894438 -0.373862
v 0.059324 0.682747 -0.684129
v 0.078564 0.367935 -0.891636
v 0.000000 0.188477 -0.954247
v -0.000000 0.539788 -0.809413
v 0.000000 0.808669 -0.541804
v -0.000000 0.957358 -0.191711
v 0.023771 0.867418 -0.174179
v 0.000000 -0.960661 -0.191711
v 0.000000 -0.811971 -0.541804
v -0.000000 -0.543090 -0.809413
v 0.000000 -0.191779 -0.954247
v 0.025739 -0.125000 -0.602617
v 0.072193 0.588371 -0.573856
v 0.025676 0.624897 -0.399279
v 0.025739 0.375000 -0.529202
v 0.023771 -0.872165 -0.174179
v 0.025676 -0.625103 -0.399279
v 0.025739 -0.375000 -0.529202
v 0.048327 -0.818271 -0.352363
v 0.072193 -0.592912 -0.573856
v 0.091433 -0.311195 -0.729826
v 0.096821 -0.002270 -0.782557
v 0.091433 0.306655 -0.729827
v 0.025739 0.125000 -0.602617
v -0.123986 -0.182576 -0.893786
v -0.083952 -0.002477 -0.964571
v -0.105810 -0.517001 -0.761652
v -0.072073 -0.782370 -0.519298
v -0.037341 -0.935144 -0.212651
v -0.037341 0.928150 -0.212651
v -0.072073 0.775742 -0.519298
v -0.105810 0.510397 -0.761652
v -0.048327 0.813065 -0.352363
v -0.123986 0.175971 -0.893786
v -0.078564 -0.372888 -0.891636
v -0.059324 -0.687701 -0.684129
v -0.034711 -0.899414 -0.373862
v -0.010964 -0.997268 -0.010201
v -0.010964 0.992315 -0.010201
v -0.034711 0.894438 -0.373862
v -0.059324 0.682747 -0.684129
v -0.078564 0.367935 -0.891636
v -0.023771 0.867418 -0.174179
v -0.025739 -0.125000 -0.602617
v -0.072193 0.588371 -0.573856
v -0.025676 0.624897 -0.399279
v -0.025739 0.375000 -0.529202
v -0.023771 -0.872165 -0.174179
v -0.025676 -0.625103 -0.399279
v -0.025739 -0.375000 -0.529202
v -0.048327 -0.818271 -0.352363
v -0.072193 -0.592912 -0.573856
v -0.091433 -0.311195 -0.729827
v -0.096821 -0.002270 -0.782557
v -0.091433 0.306655 -0.729827
v -0.025739 0.125000 -0.602617
v 0.082828 -0.191248 -0.946093
v 0.070331 -0.540448 -0.803102
v 0.047108 -0.808890 -0.539128
v 0.022763 -0.958090 -0.194922
v 0.022763 0.953088 -0.194922
v 0.047108 0.803934 -0.539128
v 0.070331 0.535495 -0.803102
v 0.082828 0.186295 -0.946093
v 0.038853 -0.885922 -0.244766
v 0.060071 -0.715309 -0.469645
v 0.083201 -0.457022 -0.662656
v 0.095697 -0.158477 -0.769681
v 0.095697 0.153937 -0.769681
v 0.083201 0.452482 -0.662656
v 0.060071 0.710685 -0.469645
v 0.038853 0.879743 -0.244766
v -0.082828 -0.191248 -0.946093
v -0.070331 -0.540448 -0.803102
v -0.047108 -0.808890 -0.539128
v -0.022763 -0.958090 -0.194922
v -0.022763 0.953088 -0.194922
v -0.047108 0.803934 -0.539128
v -0.070331 0.535495 -0.803102
v -0.082828 0.186295 -0.946093
v -0.038853 -0.885922 -0.244766
v -0.060071 -0.715309 -0.469645
v -0.083201 -0.457022 -0.662656
v -0.095697 -0.158477 -0.769681
v -0.095697 0.153937 -0.769681
v -0.083201 0.452482 -0.662656
v -0.060071 0.710685 -0.469645
v -0.038853 0.879743 -0.244766
vn -0.0000 0.0006 -1.0000
vn 0.4762 -0.0001 -0.8794
vn 0.4754 -0.1766 -0.8619
vn -0.0000 -0.1937 -0.9811
vn 0.9709 -0.0003 -0.2395
vn 0.9704 -0.0651 -0.2326
vn 0.9691 -0.1317 -0.2087
vn 0.4766 -0.3478 -0.8074
vn -0.0000 -0.3806 -0.9247
vn 0.4793 -0.5031 -0.7191
vn -0.0000 -0.5531 -0.8331
vn 0.9670 -0.1901 -0.1698
vn 0.9636 -0.2353 -0.1273
vn 0.4789 -0.6354 -0.6058
vn -0.0000 -0.7045 -0.7097
vn 0.4676 -0.7460 -0.4742
vn -0.0000 -0.8294 -0.5586
vn 0.9575 -0.2745 -0.0889
vn 0.9506 -0.3060 -0.0512
vn 0.4558 -0.8285 -0.3252
vn -0.0000 -0.9205 -0.3907
vn 0.5723 -0.8026 -0.1683
vn -0.0000 -0.9679 -0.2513
vn 0.9657 -0.2595 0.0125
vn 0.9583 -0.2836 0.0359
vn 0.2743 -0.9439 -0.1837
vn -0.0000 -0.9787 -0.2054
vn -0.0000 0.9793 -0.2026
vn 0.3638 0.9150 -0.1745
vn 0.6122 0.7742 -0.1608
vn -0.0000 0.9686 -0.2486
vn 0.9637 0.2642 0.0397
vn 0.9711 0.2378 0.0202
vn 0.9560 0.2901 -0.0435
vn 0.4912 0.8115 -0.3164
vn -0.0000 0.9215 -0.3884
vn 0.4898 0.7365 -0.4665
vn -0.0000 0.8307 -0.5568
vn 0.9607 0.2650 -0.0822
vn 0.9656 0.2297 -0.1219
vn 0.4936 0.6299 -0.5996
vn -0.0000 0.7058 -0.7084
vn 0.4894 0.5001 -0.7144
vn -0.0000 0.5543 -0.8323
vn 0.9684 0.1868 -0.1655
vn 0.9700 0.1298 -0.2056
vn 0.4830 0.3464 -0.8042
vn -0.0000 0.3819 -0.9242
vn 0.4785 0.1761 -0.8602
vn -0.0000 0.1949 -0.9808
vn 0.9708 0.0642 -0.2310
vn 0.9776 0.1145 0.1763
vn 0.9811 0.1162 0.1550
vn 0.9609 0.1741 0.2156
vn 0.9772 0.1367 0.1625
vn 0.9669 0.0931 0.2377
vn 0.9720 0.1054 0.2098
vn 0.9442 0.1426 0.2967
vn 0.9518 0.1579 0.2630
vn 0.9578 0.0622 0.2808
vn 0.9620 0.0813 0.2606
vn 0.9293 0.0939 0.3571
vn 0.9366 0.1259 0.3271
vn 0.9546 0.0001 0.2978
vn 0.9553 0.0338 0.2936
vn 0.9242 -0.0002 0.3818
vn 0.9253 0.0480 0.3762
vn 0.9573 -0.0626 0.2822
vn 0.9551 -0.0338 0.2944
vn 0.9285 -0.0950 0.3591
vn 0.9249 -0.0486 0.3772
vn 0.9662 -0.0946 0.2399
vn 0.9614 -0.0821 0.2624
vn 0.9428 -0.1451 0.3001
vn 0.9354 -0.1276 0.3298
vn 0.9769 -0.1181 0.1784
vn 0.9713 -0.1078 0.2122
vn 0.9591 -0.1802 0.2182
vn 0.9501 -0.1620 0.2666
vn 0.9764 -0.1407 0.1637
vn 0.9803 -0.1204 0.1565
vn -0.4754 -0.1766 -0.8619
vn -0.4762 -0.0001 -0.8794
vn -0.4766 -0.3478 -0.8074
vn -0.9691 -0.1317 -0.2087
vn -0.9704 -0.0651 -0.2326
vn -0.9709 -0.0003 -0.2395
vn -0.4793 -0.5031 -0.7191
vn -0.4789 -0.6354 -0.6058
vn -0.9636 -0.2353 -0.1273
vn -0.9670 -0.1901 -0.1698
vn -0.4676 -0.7460 -0.4742
vn -0.4558 -0.8285 -0.3252
vn -0.9506 -0.3060 -0.0512
vn -0.9575 -0.2745 -0.0889
vn -0.5723 -0.8026 -0.1683
vn -0.2743 -0.9439 -0.1837
vn -0.9583 -0.2836 0.0359
vn -0.9657 -0.2595 0.0125
vn -0.6122 0.7742 -0.1608
vn -0.3638 0.9150 -0.1745
vn -0.4912 0.8115 -0.3164
vn -0.9560 0.2901 -0.0435
vn -0.9711 0.2378 0.0202
vn -0.9637 0.2642 0.0397
vn -0.4898 0.7365 -0.4665
vn -0.4936 0.6299 -0.5996
vn -0.9656 0.2297 -0.1219
vn -0.9607 0.2650 -0.0822
vn -0.4894 0.5001 -0.7144
vn -0.4830 0.3464 -0.8042
vn -0.9700 0.1298 -0.2056
vn -0.9684 0.1868 -0.1655
vn -0.4785 0.1761 -0.8602
vn -0.9708 0.0642 -0.2310
vn -0.9811 0.1162 0.1550
vn -0.9776 0.1145 0.1763
vn -0.9772 0.1367 0.1625
vn -0.9609 0.1741 0.2156
vn -0.9720 0.1054 0.2098
vn -0.9669 0.0931 0.2377
vn -0.9518 0.1579 0.2630
vn -0.9442 0.1426 0.2967
vn -0.9620 0.0813 0.2606
vn -0.9578 0.0622 0.2808
vn -0.9366 0.1259 0.3271
vn -0.9293 0.0939 0.3571
vn -0.9553 0.0338 0.2936
vn -0.9546 0.0001 0.2978
vn -0.9253 0.0480 0.3762
vn -0.9242 -0.0002 0.3818
vn -0.9551 -0.0338 0.2944
vn -0.9573 -0.0626 0.2822
vn -0.9249 -0.0486 0.3772
vn -0.9285 -0.0950 0.3591
vn -0.9614 -0.0821 0.2624
vn -0.9662 -0.0946 0.2399
vn -0.9354 -0.1276 0.3298
vn -0.9428 -0.1451 0.3001
vn -0.9713 -0.1078 0.2122
vn -0.9769 -0.1181 0.1784
vn -0.9501 -0.1620 0.2666
vn -0.9591 -0.1802 0.2182
vn -0.9803 -0.1204 0.1565
vn -0.9764 -0.1407 0.1637
vt 0.544886 0.518684
vt 0.528996 0.362222
vt 0.471406 0.218948
vt 0.379243 0.104276
vt 0.258949 0.011081
vt 0.215348 0.988803
vt 0.343798 0.908887
vt 0.445076 0.804253
vt 0.514518 0.670387
vt 0.699595 0.530831
vt 0.674721 0.334804
vt 0.570048 0.174016
vt 0.427968 0.067503
vt 0.260754 0.000073
vt 0.215113 0.999927
vt 0.387821 0.949796
vt 0.536069 0.856687
vt 0.648235 0.713336
vt 0.168042 0.501184
vt 0.190561 0.870269
vt 0.221518 0.132912
vt 0.195474 0.255668
vt 0.178083 0.378345
vt 0.175294 0.747166
vt 0.168042 0.624456
vt 0.544886 0.518684
vt 0.528996 0.362222
vt 0.471406 0.218948
vt 0.379243 0.104276
vt 0.258949 0.011081
vt 0.215348 0.988803
vt 0.343798 0.908887
vt 0.445076 0.804253
vt 0.514518 0.670387
vt 0.168042 0.501184
vt 0.190561 0.870269
vt 0.221518 0.132912
vt 0.195474 0.255668
vt 0.178083 0.378345
vt 0.175294 0.747166
vt 0.168042 0.624456
vt 0.542616 0.439965
vt 0.638806 0.524525
vt 0.505012 0.287866
vt 0.429006 0.157304
vt 0.322294 0.059985
vt 0.283062 0.947161
vt 0.397823 0.861036
vt 0.484230 0.740238
vt 0.280127 0.887282
vt 0.535175 0.596046
vt 0.616685 0.351466
vt 0.535199 0.200174
vt 0.411690 0.087662
vt 0.259852 0.005577
vt 0.215230 0.994365
vt 0.373873 0.927866
vt 0.505267 0.828196
vt 0.597937 0.690042
vt 0.673915 0.622083
vt 0.592152 0.785011
vt 0.461945 0.903242
vt 0.301467 0.974861
vt 0.202954 0.929536
vt 0.344361 0.033788
vt 0.499008 0.120759
vt 0.622385 0.254410
vt 0.687158 0.432818
vt 0.173062 0.439764
vt 0.327942 0.776952
vt 0.182927 0.808718
vt 0.171668 0.685811
vt 0.240233 0.071996
vt 0.208496 0.194290
vt 0.186779 0.317006
vt 0.313148 0.121554
vt 0.351111 0.237225
vt 0.374418 0.370800
vt 0.379020 0.510670
vt 0.362566 0.648283
vt 0.168042 0.562820
vt 0.542616 0.439965
vt 0.638806 0.524525
vt 0.505012 0.287866
vt 0.429007 0.157304
vt 0.322294 0.059985
vt 0.283062 0.947161
vt 0.397823 0.861036
vt 0.484230 0.740238
vt 0.280127 0.887282
vt 0.535174 0.596046
vt 0.616685 0.351466
vt 0.535199 0.200174
vt 0.411690 0.087662
vt 0.259852 0.005577
vt 0.215230 0.994365
vt 0.373873 0.927866
vt 0.505267 0.828196
vt 0.597937 0.690042
vt 0.202954 0.929536
vt 0.173062 0.439764
vt 0.327942 0.776952
vt 0.182927 0.808718
vt 0.171668 0.685811
vt 0.240233 0.071996
vt 0.208496 0.194290
vt 0.186779 0.317006
vt 0.313148 0.121554
vt 0.351111 0.237225
vt 0.374418 0.370800
vt 0.379020 0.510670
vt 0.362566 0.648283
vt 0.168042 0.562820
vt 0.635169 0.437187
vt 0.581913 0.271989
vt 0.477691 0.139320
vt 0.337890 0.044886
vt 0.296636 0.963145
vt 0.443594 0.882752
vt 0.556863 0.763084
vt 0.625239 0.609476
vt 0.295219 0.082133
vt 0.333276 0.175922
vt 0.365035 0.302666
vt 0.379326 0.440514
vt 0.373374 0.580209
vt 0.347399 0.714103
vt 0.304943 0.835672
vt 0.258544 0.923914
vt 0.635169 0.437187
vt 0.581913 0.271989
vt 0.477691 0.139320
vt 0.337890 0.044886
vt 0.296636 0.963145
vt 0.443594 0.882752
vt 0.556863 0.763084
vt 0.625239 0.609476
vt 0.295219 0.082133
vt 0.333276 0.175922
vt 0.365035 0.302666
vt 0.379326 0.440514
vt 0.373374 0.580209
vt 0.347399 0.714104
vt 0.304943 0.835672
vt 0.258544 0.923914
s 1
f 10/10/1 43/43/2 114/114/3 68/68/4
f 43/43/2 1/1/5 42/42/6 114/114/3
f 114/114/3 42/42/6 2/2/7 52/52/8
f 68/68/4 114/114/3 52/52/8 11/11/9
f 11/11/9 52/52/8 115/115/10 67/67/11
f 52/52/8 2/2/7 44/44/12 115/115/10
f 115/115/10 44/44/12 3/3/13 53/53/14
f 67/67/11 115/115/10 53/53/14 12/12/15
f 12/12/15 53/53/14 116/116/16 66/66/17
f 53/53/14 3/3/13 45/45/18 116/116/16
f 116/116/16 45/45/18 4/4/19 54/54/20
f 66/66/17 116/116/16 54/54/20 13/13/21
f 13/13/21 54/54/20 117/117/22 65/65/23
f 54/54/20 4/4/19 46/46/24 117/117/22
f 117/117/22 46/46/24 5/5/25 55/55/26
f 65/65/23 117/117/22 55/55/26 14/14/27
f 15/15/28 56/56/29 118/118/30 63/63/31
f 56/56/29 6/6/32 47/47/33 118/118/30
f 118/118/30 47/47/33 7/7/34 57/57/35
f 63/63/31 118/118/30 57/57/35 16/16/36
f 16/16/36 57/57/35 119/119/37 62/62/38
f 57/57/35 7/7/34 48/48/39 119/119/37
f 119/119/37 48/48/39 8/8/40 58/58/41
f 62/62/38 119/119/37 58/58/41 17/17/42
f 17/17/42 58/58/41 120/120/43 61/61/44
f 58/58/41 8/8/40 49/49/45 120/120/43
f 120/120/43 49/49/45 9/9/46 59/59/47
f 61/61/44 120/120/43 59/59/47 18/18/48
f 18/18/48 59/59/47 121/121/49 60/60/50
f 59/59/47 9/9/46 51/51/51 121/121/49
f 121/121/49 51/51/51 1/1/5 43/43/2
f 60/60/50 121/121/49 43/43/2 10/10/1
f 4/4/19 76/76/52 122/122/53 46/46/24
f 21/21/54 73/73/55 122/122/53 76/76/52
f 5/5/25 46/46/24 122/122/53 73/73/55
f 3/3/13 77/77/56 123/123/57 45/45/18
f 77/77/56 22/22/58 74/74/59 123/123/57
f 123/123/57 74/74/59 21/21/54 76/76/52
f 45/45/18 123/123/57 76/76/52 4/4/19
f 2/2/7 78/78/60 124/124/61 44/44/12
f 78/78/60 23/23/62 75/75/63 124/124/61
f 124/124/61 75/75/63 22/22/58 77/77/56
f 44/44/12 124/124/61 77/77/56 3/3/13
f 1/1/5 79/79/64 125/125/65 42/42/6
f 79/79/64 19/19/66 69/69/67 125/125/65
f 125/125/65 69/69/67 23/23/62 78/78/60
f 42/42/6 125/125/65 78/78/60 2/2/7
f 9/9/46 80/80/68 126/126/69 51/51/51
f 80/80/68 25/25/70 81/81/71 126/126/69
f 126/126/69 81/81/71 19/19/66 79/79/64
f 51/51/51 126/126/69 79/79/64 1/1/5
f 8/8/40 70/70/72 127/127/73 49/49/45
f 70/70/72 24/24/74 72/72/75 127/127/73
f 127/127/73 72/72/75 25/25/70 80/80/68
f 49/49/45 127/127/73 80/80/68 9/9/46
f 7/7/34 50/50/76 128/128/77 48/48/39
f 50/50/76 20/20/78 71/71/79 128/128/77
f 128/128/77 71/71/79 24/24/74 70/70/72
f 48/48/39 128/128/77 70/70/72 8/8/40
f 6/6/32 64/64/80 129/129/81 47/47/33
f 20/20/78 50/50/76 129/129/81 64/64/80
f 7/7/34 47/47/33 129/129/81 50/50/76
f 10/10/1 68/68/4 130/130/82 83/83/83
f 68/68/4 11/11/9 92/92/84 130/130/82
f 130/130/82 92/92/84 27/27/85 82/82/86
f 83/83/83 130/130/82 82/82/86 26/26/87
f 11/11/9 67/67/11 131/131/88 92/92/84
f 67/67/11 12/12/15 93/93/89 131/131/88
f 131/131/88 93/93/89 28/28/90 84/84/91
f 92/92/84 131/131/88 84/84/91 27/27/85
f 12/12/15 66/66/17 132/132/92 93/93/89
f 66/66/17 13/13/21 94/94/93 132/132/92
f 132/132/92 94/94/93 29/29/94 85/85/95
f 93/93/89 132/132/92 85/85/95 28/28/90
f 13/13/21 65/65/23 133/133/96 94/94/93
f 65/65/23 14/14/27 95/95/97 133/133/96
f 133/133/96 95/95/97 30/30/98 86/86/99
f 94/94/93 133/133/96 86/86/99 29/29/94
f 15/15/28 63/63/31 134/134/100 96/96/101
f 63/63/31 16/16/36 97/97/102 134/134/100
f 134/134/100 97/97/102 32/32/103 87/87/104
f 96/96/101 134/134/100 87/87/104 31/31/105
f 16/16/36 62/62/38 135/135/106 97/97/102
f 62/62/38 17/17/42 98/98/107 135/135/106
f 135/135/106 98/98/107 33/33/108 88/88/109
f 97/97/102 135/135/106 88/88/109 32/32/103
f 17/17/42 61/61/44 136/136/110 98/98/107
f 61/61/44 18/18/48 99/99/111 136/136/110
f 136/136/110 99/99/111 34/34/112 89/89/113
f 98/98/107 136/136/110 89/89/113 33/33/108
f 18/18/48 60/60/50 137/137/114 99/99/111
f 60/60/50 10/10/1 83/83/83 137/137/114
f 137/137/114 83/83/83 26/26/87 91/91/115
f 99/99/111 137/137/114 91/91/115 34/34/112
f 29/29/94 86/86/99 138/138/116 108/108/117
f 30/30/98 105/105/118 138/138/116 86/86/99
f 37/37/119 108/108/117 138/138/116 105/105/118
f 28/28/90 85/85/95 139/139/120 109/109/121
f 85/85/95 29/29/94 108/108/117 139/139/120
f 139/139/120 108/108/117 37/37/119 106/106/122
f 109/109/121 139/139/120 106/106/122 38/38/123
f 27/27/85 84/84/91 140/140/124 110/110/125
f 84/84/91 28/28/90 109/109/121 140/140/124
f 140/140/124 109/109/121 38/38/123 107/107/126
f 110/110/125 140/140/124 107/107/126 39/39/127
f 26/26/87 82/82/86 141/141/128 111/111/129
f 82/82/86 27/27/85 110/110/125 141/141/128
f 141/141/128 110/110/125 39/39/127 101/101/130
f 111/111/129 141/141/128 101/101/130 35/35/131
f 34/34/112 91/91/115 142/142/132 112/112/133
f 91/91/115 26/26/87 111/111/129 142/142/132
f 142/142/132 111/111/129 35/35/131 113/113/134
f 112/112/133 142/142/132 113/113/134 41/41/135
f 33/33/108 89/89/113 143/143/136 102/102/137
f 89/89/113 34/34/112 112/112/133 143/143/136
f 143/143/136 112/112/133 41/41/135 104/104/138
f 102/102/137 143/143/136 104/104/138 40/40/139
f 32/32/103 88/88/109 144/144/140 90/90/141
f 88/88/109 33/33/108 102/102/137 144/144/140
f 144/144/140 102/102/137 40/40/139 103/103/142
f 90/90/141 144/144/140 103/103/142 36/36/143
f 31/31/105 87/87/104 145/145/144 100/100/145
f 32/32/103 90/90/141 145/145/144 87/87/104
f 36/36/143 100/100/145 145/145/144 90/90/141
