# Blender 3.4.1
# www.blender.org
mtllib sword_over_model.mtl
o Cube
v -2.700000 1.000000 -0.079517
v -2.700000 0.879517 -0.200000
v -2.700000 0.964711 -0.164711
v -2.700000 -0.879517 -0.200000
v -2.700000 -1.000000 -0.079517
v -2.700000 -0.964711 -0.164711
v -2.700000 0.879517 0.200000
v -2.700000 1.000000 0.079517
v -2.700000 0.964711 0.164711
v -2.700000 -1.000000 0.079517
v -2.700000 -0.879517 0.200000
v -2.700000 -0.964711 0.164711
v 3.179518 0.199574 -0.200000
v 3.300000 0.187708 -0.079517
v 3.264712 0.191183 -0.164711
v 2.100425 -0.879517 -0.200000
v 2.112292 -1.000000 -0.079517
v 2.108816 -0.964712 -0.164711
v 3.096099 -0.219798 -0.200000
v 3.209591 -0.266808 -0.079517
v 3.176350 -0.253039 -0.164711
v 2.865265 -0.565266 -0.200000
v 2.952128 -0.652128 -0.079517
v 2.926687 -0.626687 -0.164711
v 2.519798 -0.796099 -0.200000
v 2.566808 -0.909591 -0.079517
v 2.553039 -0.876350 -0.164711
v 2.100425 -0.879517 0.200000
v 2.112292 -1.000000 0.079517
v 2.108816 -0.964712 0.164711
v 3.179518 0.199574 0.200000
v 3.300000 0.187708 0.079517
v 3.264712 0.191183 0.164711
v 2.519798 -0.796099 0.200000
v 2.566808 -0.909591 0.079517
v 2.553039 -0.876350 0.164711
v 2.865265 -0.565266 0.200000
v 2.952128 -0.652128 0.079517
v 2.926687 -0.626687 0.164711
v 3.096099 -0.219798 0.200000
v 3.209591 -0.266808 0.079517
v 3.176350 -0.253039 0.164711
v 3.128000 0.879517 -0.200000
v 3.151965 1.000000 -0.079517
v 3.144945 0.964711 -0.164711
v 3.179518 0.827999 -0.200000
v 3.300000 0.851965 -0.079517
v 3.264712 0.844945 -0.164711
v 3.164428 0.864428 -0.200000
v 3.256642 0.956641 -0.079517
v 3.229633 0.929633 -0.164711
v 3.179518 0.827999 0.200000
v 3.300000 0.851965 0.079517
v 3.264712 0.844945 0.164711
v 3.128000 0.879517 0.200000
v 3.151965 1.000000 0.079517
v 3.144945 0.964711 0.164711
v 3.164428 0.864428 0.200000
v 3.256642 0.956641 0.079517
v 3.229633 0.929633 0.164711
vn -0.0000 -0.9808 -0.1951
vn 0.0962 -0.9764 -0.1936
vn 0.0962 -0.9764 0.1936
vn -0.0000 -0.9808 0.1951
vn 0.1914 0.9622 -0.1938
vn -0.0000 0.9808 -0.1951
vn -0.0000 0.9808 0.1951
vn 0.1914 0.9622 0.1938
vn 0.0202 -0.2049 0.9786
vn 0.0821 -0.1983 0.9767
vn 0.1518 -0.1518 0.9767
vn 0.1983 -0.0821 0.9767
vn 0.2049 -0.0202 0.9786
vn 0.2105 0.0419 0.9767
vn 0.1590 0.1590 0.9744
vn 0.0419 0.2105 0.9767
vn -0.0000 0.1951 0.9808
vn -0.0000 -0.1951 0.9808
vn -0.0000 -0.1951 -0.9808
vn -0.0000 0.1951 -0.9808
vn 0.0419 0.2105 -0.9767
vn 0.1590 0.1590 -0.9744
vn 0.2105 0.0419 -0.9767
vn 0.2049 -0.0202 -0.9786
vn 0.1983 -0.0821 -0.9767
vn 0.1518 -0.1518 -0.9767
vn 0.0821 -0.1983 -0.9767
vn 0.0202 -0.2049 -0.9786
vn 0.6937 -0.6937 0.1938
vn 0.6937 -0.6937 -0.1938
vn 0.9064 -0.3754 -0.1938
vn 0.9064 -0.3754 0.1938
vn 0.6929 0.6929 0.1994
vn 0.6929 0.6929 -0.1994
vn 0.3754 -0.9064 0.1938
vn 0.3754 -0.9064 -0.1938
vn 0.9764 -0.0962 -0.1936
vn 0.9622 0.1914 -0.1938
vn 0.9622 0.1914 0.1938
vn 0.9764 -0.0962 0.1936
vn 0.0703 -0.7140 0.6966
vn 0.2774 -0.6697 0.6889
vn 0.2774 -0.6697 -0.6889
vn 0.0703 -0.7140 -0.6966
vn 0.5126 -0.5126 0.6889
vn 0.5126 -0.5126 -0.6889
vn 0.6697 -0.2774 0.6889
vn 0.6697 -0.2774 -0.6889
vn 0.7140 -0.0703 0.6966
vn 0.7140 -0.0703 -0.6966
vn -0.0000 -0.7071 -0.7071
vn -0.0000 -0.7071 0.7071
vn 0.1414 0.7110 -0.6889
vn 0.5169 0.5169 -0.6824
vn 0.5169 0.5169 0.6824
vn 0.1414 0.7110 0.6889
vn 0.7110 0.1414 -0.6889
vn 0.7110 0.1414 0.6889
vn -0.0000 0.7071 -0.7071
vn -0.0000 0.7071 0.7071
vt 0.697708 0.996119
vt 0.014176 0.996976
vt 0.000000 0.995654
vt 0.712213 0.994947
vt 0.313268 1.000000
vt 0.726718 0.963491
vt 0.712213 0.962902
vt 0.328063 0.998971
vt 0.641950 0.996976
vt 0.670631 0.996119
vt 0.656126 0.995653
vt 0.656126 0.994947
vt 0.753795 0.963491
vt 0.342858 1.000000
vt 0.328063 0.998971
vt 0.768300 0.962902
vt 0.129788 0.016509
vt 0.809882 0.479390
vt 0.131524 0.001124
vt 0.824387 0.480368
vt 0.313268 0.198528
vt 0.726718 0.148106
vt 0.712213 0.148106
vt 0.328063 0.196098
vt 0.201094 0.031157
vt 0.809882 0.403158
vt 0.207056 0.016640
vt 0.824387 0.405862
vt 0.259835 0.070291
vt 0.726718 0.000000
vt 0.809882 0.340516
vt 0.712213 0.003886
vt 0.270588 0.058966
vt 0.824387 0.345118
vt 0.299084 0.128367
vt 0.726718 0.069585
vt 0.313039 0.121779
vt 0.712213 0.071363
vt 0.342858 0.198528
vt 0.753795 0.148106
vt 0.328063 0.196098
vt 0.768300 0.148106
vt 0.526338 0.016509
vt 0.782805 0.479390
vt 0.524602 0.001124
vt 0.768300 0.480368
vt 0.357042 0.128367
vt 0.753795 0.069585
vt 0.343087 0.121779
vt 0.768300 0.071363
vt 0.396291 0.070291
vt 0.753795 0.000000
vt 0.782805 0.340516
vt 0.768300 0.003886
vt 0.385538 0.058966
vt 0.768300 0.345118
vt 0.455032 0.031157
vt 0.782805 0.403158
vt 0.449070 0.016640
vt 0.768300 0.405862
vt 0.014176 0.023941
vt 0.697708 0.018920
vt 0.000000 0.019790
vt 0.712213 0.018920
vt 0.022936 0.015429
vt 0.809882 0.592250
vt 0.020364 0.000000
vt 0.824387 0.591445
vt 0.016742 0.017885
vt 0.697708 0.000000
vt 0.809882 0.610511
vt 0.712213 0.003613
vt 0.005965 0.005711
vt 0.824387 0.606218
vt 0.633190 0.015429
vt 0.782805 0.592250
vt 0.635762 0.000000
vt 0.768300 0.591445
vt 0.641950 0.023941
vt 0.670631 0.018920
vt 0.656126 0.019790
vt 0.656126 0.018920
vt 0.639384 0.017885
vt 0.670631 0.000000
vt 0.782805 0.610511
vt 0.656126 0.003613
vt 0.650161 0.005711
vt 0.768300 0.606218
s 1
usemtl Material
f 5/6/1 17/22/2 29/40/3 10/13/4
f 44/62/5 1/1/6 8/10/7 56/80/8
f 28/39/9 34/47/10 37/51/11 40/57/12 31/43/13 52/75/14 58/83/15 55/79/16 7/9/17 11/14/18
f 4/5/19 2/2/20 43/61/21 49/69/22 46/65/23 13/17/24 19/25/25 22/29/26 25/35/27 16/21/28
f 38/53/29 23/31/30 20/26/31 41/58/32
f 44/62/5 56/80/8 59/84/33 50/70/34
f 35/48/35 26/36/36 23/30/30 38/52/29
f 14/18/37 47/66/38 53/76/39 32/44/40
f 41/58/32 20/26/31 14/18/37 32/44/40
f 50/71/34 59/85/33 53/76/39 47/66/38
f 29/40/3 17/22/2 26/36/36 35/48/35
f 34/47/10 28/39/9 30/41/41 36/49/42
f 36/50/42 30/42/41 29/40/3 35/48/35
f 16/21/28 25/35/27 27/37/43 18/24/44
f 18/23/44 27/38/43 26/36/36 17/22/2
f 37/51/11 34/47/10 36/49/42 39/55/45
f 39/54/45 36/50/42 35/48/35 38/52/29
f 25/35/27 22/29/26 24/33/46 27/37/43
f 27/38/43 24/32/46 23/30/30 26/36/36
f 40/57/12 37/51/11 39/55/45 42/59/47
f 42/60/47 39/56/45 38/53/29 41/58/32
f 22/29/26 19/25/25 21/27/48 24/33/46
f 24/34/46 21/28/48 20/26/31 23/31/30
f 31/43/13 40/57/12 42/59/47 33/45/49
f 33/46/49 42/60/47 41/58/32 32/44/40
f 19/25/25 13/17/24 15/19/50 21/27/48
f 21/28/48 15/20/50 14/18/37 20/26/31
f 17/22/2 5/6/1 6/7/51 18/23/44
f 18/24/44 6/8/51 4/5/19 16/21/28
f 28/39/9 11/14/18 12/15/52 30/41/41
f 30/42/41 12/16/52 10/13/4 29/40/3
f 49/69/22 43/61/21 45/63/53 51/73/54
f 51/72/54 45/64/53 44/62/5 50/70/34
f 55/79/16 58/83/15 60/87/55 57/81/56
f 57/82/56 60/86/55 59/84/33 56/80/8
f 46/65/23 49/69/22 51/73/54 48/67/57
f 48/68/57 51/74/54 50/71/34 47/66/38
f 58/83/15 52/75/14 54/77/58 60/87/55
f 60/88/55 54/78/58 53/76/39 59/85/33
f 13/17/24 46/65/23 48/67/57 15/19/50
f 15/20/50 48/68/57 47/66/38 14/18/37
f 52/75/14 31/43/13 33/45/49 54/77/58
f 54/78/58 33/46/49 32/44/40 53/76/39
f 43/61/21 2/2/20 3/3/59 45/63/53
f 45/64/53 3/4/59 1/1/6 44/62/5
f 7/9/17 55/79/16 57/81/56 9/11/60
f 9/12/60 57/82/56 56/80/8 8/10/7
